<mxfile host="app.diagrams.net" modified="2024-07-02T15:02:59.366Z" agent="Mozilla/5.0 (Macintosh; Intel Mac OS X 10_15_7) AppleWebKit/537.36 (KHTML, like Gecko) Chrome/126.0.0.0 Safari/537.36" etag="KW5Be-wh4DOR_1jhxpEc" version="24.6.4" type="device">
  <diagram name="dev_setup" id="m5RTmNpmpi2ut2NTiF_R">
    <mxGraphModel dx="1434" dy="1315" grid="1" gridSize="10" guides="1" tooltips="1" connect="1" arrows="1" fold="1" page="1" pageScale="1" pageWidth="827" pageHeight="1169" math="0" shadow="0">
      <root>
        <mxCell id="0" />
        <mxCell id="1" parent="0" />
        <mxCell id="R4y0DHAtCfPw0MiUy75K-2" value="muesli" style="rounded=1;whiteSpace=wrap;html=1;verticalAlign=bottom;dashed=1;dashPattern=8 8;fillColor=none;arcSize=8;" vertex="1" parent="1">
          <mxGeometry x="79" y="330" width="621" height="360" as="geometry" />
        </mxCell>
        <mxCell id="R4y0DHAtCfPw0MiUy75K-1" value="VS Code" style="rounded=1;whiteSpace=wrap;html=1;" vertex="1" parent="1">
          <mxGeometry x="130" y="370" width="110" height="70" as="geometry" />
        </mxCell>
        <mxCell id="R4y0DHAtCfPw0MiUy75K-3" value="vm" style="rounded=1;whiteSpace=wrap;html=1;fillColor=none;verticalAlign=bottom;" vertex="1" parent="1">
          <mxGeometry x="383" y="360" width="296" height="145" as="geometry" />
        </mxCell>
        <mxCell id="R4y0DHAtCfPw0MiUy75K-9" style="edgeStyle=orthogonalEdgeStyle;rounded=0;orthogonalLoop=1;jettySize=auto;html=1;" edge="1" parent="1" source="R4y0DHAtCfPw0MiUy75K-4" target="R4y0DHAtCfPw0MiUy75K-1">
          <mxGeometry relative="1" as="geometry" />
        </mxCell>
        <mxCell id="R4y0DHAtCfPw0MiUy75K-15" value="ssh over forward" style="edgeLabel;html=1;align=center;verticalAlign=middle;resizable=0;points=[];" vertex="1" connectable="0" parent="R4y0DHAtCfPw0MiUy75K-9">
          <mxGeometry x="0.2375" y="-1" relative="1" as="geometry">
            <mxPoint as="offset" />
          </mxGeometry>
        </mxCell>
        <mxCell id="R4y0DHAtCfPw0MiUy75K-10" style="edgeStyle=orthogonalEdgeStyle;rounded=0;orthogonalLoop=1;jettySize=auto;html=1;entryX=0.5;entryY=1;entryDx=0;entryDy=0;" edge="1" parent="1" source="R4y0DHAtCfPw0MiUy75K-4" target="R4y0DHAtCfPw0MiUy75K-5">
          <mxGeometry relative="1" as="geometry" />
        </mxCell>
        <mxCell id="R4y0DHAtCfPw0MiUy75K-11" style="edgeStyle=orthogonalEdgeStyle;rounded=0;orthogonalLoop=1;jettySize=auto;html=1;entryX=0;entryY=0.5;entryDx=0;entryDy=0;" edge="1" parent="1" source="R4y0DHAtCfPw0MiUy75K-4" target="R4y0DHAtCfPw0MiUy75K-8">
          <mxGeometry relative="1" as="geometry" />
        </mxCell>
        <mxCell id="R4y0DHAtCfPw0MiUy75K-4" value="VS Code" style="rounded=1;whiteSpace=wrap;html=1;" vertex="1" parent="1">
          <mxGeometry x="400" y="380" width="90" height="50" as="geometry" />
        </mxCell>
        <mxCell id="R4y0DHAtCfPw0MiUy75K-6" style="edgeStyle=orthogonalEdgeStyle;rounded=0;orthogonalLoop=1;jettySize=auto;html=1;" edge="1" parent="1" source="R4y0DHAtCfPw0MiUy75K-5" target="R4y0DHAtCfPw0MiUy75K-4">
          <mxGeometry relative="1" as="geometry" />
        </mxCell>
        <mxCell id="R4y0DHAtCfPw0MiUy75K-5" value="github" style="rounded=1;whiteSpace=wrap;html=1;" vertex="1" parent="1">
          <mxGeometry x="385" y="170" width="120" height="60" as="geometry" />
        </mxCell>
        <mxCell id="R4y0DHAtCfPw0MiUy75K-8" value="language&lt;div&gt;binary&lt;/div&gt;" style="rounded=1;whiteSpace=wrap;html=1;" vertex="1" parent="1">
          <mxGeometry x="570" y="380" width="90" height="50" as="geometry" />
        </mxCell>
        <mxCell id="R4y0DHAtCfPw0MiUy75K-12" value="vm.img" style="shape=cylinder3;whiteSpace=wrap;html=1;boundedLbl=1;backgroundOutline=1;size=15;verticalAlign=bottom;" vertex="1" parent="1">
          <mxGeometry x="620" y="520" width="50" height="60" as="geometry" />
        </mxCell>
        <mxCell id="R4y0DHAtCfPw0MiUy75K-14" style="edgeStyle=orthogonalEdgeStyle;rounded=0;orthogonalLoop=1;jettySize=auto;html=1;entryX=0;entryY=0;entryDx=0;entryDy=37.5;entryPerimeter=0;" edge="1" parent="1" source="R4y0DHAtCfPw0MiUy75K-3" target="R4y0DHAtCfPw0MiUy75K-12">
          <mxGeometry relative="1" as="geometry" />
        </mxCell>
      </root>
    </mxGraphModel>
  </diagram>
</mxfile>
